<svg width="40" height="18" viewBox="0 0 40 18" fill="none" xmlns="http://www.w3.org/2000/svg">
<g clip-path="url(#clip0)">
<path d="M11.2114 4.67945C11.1898 4.52473 11.0785 4.39746 10.928 4.35563L6.10501 3.01435C6.03625 2.99522 5.96363 2.99522 5.89481 3.01435L1.0718 4.35563C0.921321 4.39746 0.810001 4.52468 0.788458 4.67945C0.760484 4.8806 0.122314 9.63333 1.75918 11.9977C3.39411 14.3592 5.80598 14.9644 5.90783 14.989C5.93811 14.9963 5.96896 14.9999 5.99991 14.9999C6.03087 14.9999 6.06172 14.9963 6.09199 14.989C6.1939 14.9644 8.60577 14.3592 10.2406 11.9977C11.8775 9.63339 11.2393 4.88065 11.2114 4.67945ZM9.11014 7.45414L5.82036 10.7439C5.74381 10.8205 5.64342 10.8588 5.54308 10.8588C5.44274 10.8588 5.34234 10.8205 5.26579 10.7439L3.23175 8.70988C3.15819 8.63637 3.11688 8.5366 3.11688 8.4326C3.11688 8.3286 3.15824 8.22884 3.23175 8.15532L3.63562 7.75145C3.78877 7.59835 4.03709 7.5983 4.19019 7.75145L5.54308 9.10434L8.15171 6.49566C8.22522 6.42209 8.32499 6.38078 8.42899 6.38078C8.53299 6.38078 8.63275 6.42209 8.70627 6.49566L9.11014 6.89953C9.26329 7.05268 9.26329 7.30099 9.11014 7.45414Z" fill="#C4C4C4"/>
</g>
<path d="M17.1479 3.976H20.6199C21.2079 3.976 21.7492 4.10667 22.2439 4.368C22.7479 4.62933 23.1446 4.99333 23.4339 5.46C23.7326 5.92667 23.8819 6.454 23.8819 7.042C23.8819 7.63 23.7326 8.15733 23.4339 8.624C23.1446 9.09067 22.7479 9.45467 22.2439 9.716C21.7492 9.97733 21.2079 10.108 20.6199 10.108H18.7159V14H17.1479V3.976ZM20.6479 8.624C20.9932 8.624 21.2919 8.54933 21.5439 8.4C21.7959 8.24133 21.9872 8.04067 22.1179 7.798C22.2486 7.55533 22.3139 7.30333 22.3139 7.042C22.3139 6.78067 22.2486 6.52867 22.1179 6.286C21.9872 6.04333 21.7959 5.84733 21.5439 5.698C21.2919 5.54867 20.9932 5.474 20.6479 5.474H18.7159V8.624H20.6479ZM27.1886 14.224C26.6753 14.224 26.218 14.126 25.8166 13.93C25.4153 13.7247 25.1026 13.44 24.8786 13.076C24.6546 12.7027 24.5426 12.2827 24.5426 11.816C24.5426 11.0787 24.818 10.4953 25.3686 10.066C25.9286 9.63667 26.6333 9.422 27.4826 9.422C27.9026 9.422 28.2806 9.464 28.6166 9.548C28.9526 9.62267 29.2186 9.70667 29.4146 9.8V9.436C29.4146 8.99733 29.2513 8.64267 28.9246 8.372C28.598 8.092 28.178 7.952 27.6646 7.952C27.3006 7.952 26.9553 8.03133 26.6286 8.19C26.3113 8.34867 26.0546 8.568 25.8586 8.848L24.7806 8.022C25.098 7.58333 25.5086 7.24267 26.0126 7C26.5166 6.75733 27.0766 6.636 27.6926 6.636C28.7286 6.636 29.5266 6.89267 30.0866 7.406C30.6466 7.91 30.9266 8.624 30.9266 9.548V14H29.4146V13.146H29.3446C29.1393 13.454 28.85 13.7107 28.4766 13.916C28.1033 14.1213 27.674 14.224 27.1886 14.224ZM27.4546 12.95C27.828 12.95 28.164 12.8613 28.4626 12.684C28.7613 12.5067 28.9946 12.2687 29.1626 11.97C29.3306 11.6713 29.4146 11.3493 29.4146 11.004C29.2 10.8827 28.948 10.7847 28.6586 10.71C28.3786 10.6353 28.0846 10.598 27.7766 10.598C27.198 10.598 26.7733 10.7147 26.5026 10.948C26.232 11.172 26.0966 11.466 26.0966 11.83C26.0966 12.1567 26.2226 12.4273 26.4746 12.642C26.7266 12.8473 27.0533 12.95 27.4546 12.95ZM34.6522 13.608L31.6842 6.86H33.4062L35.4222 11.718H35.4782L37.4382 6.86H39.1322L34.7222 17.024H33.0982L34.6522 13.608Z" fill="#C4C4C4"/>
<defs>
<clipPath id="clip0">
<rect width="12" height="12" fill="white" transform="translate(-9.15527e-05 3)"/>
</clipPath>
</defs>
</svg>
